<svg width="96" height="96" viewBox="0 0 96 96" fill="none" xmlns="http://www.w3.org/2000/svg">
<rect width="96" height="96" fill="white"/>
<path d="M4.66675 18.0003L18.0001 4.66699H91.3334V78.0003L78.0001 91.3337H4.66675V18.0003Z" fill="black"/>
<path d="M61.8748 42.4141H69.9997V55.6936L61.8748 64.0807V55.6936V42.4141Z" fill="white"/>
<path d="M34.7915 44.4463H26.6665V31.5817L34.7915 23.4568V31.5817V44.4463Z" fill="white"/>
<path d="M34.7915 42.415H26.6665V55.6946L34.7915 64.0817V55.6946V42.415Z" fill="white"/>
<path d="M61.8748 44.4463H69.9997V31.5817L61.8748 23.4568V31.5817V44.4463Z" fill="white"/>
<rect x="34.7915" y="23.459" width="27.0833" height="8.12498" fill="white"/>
<rect x="61.8748" y="15.334" width="8.12498" height="8.12498" fill="white"/>
<rect x="61.8748" y="64.085" width="8.12498" height="8.12498" fill="white"/>
<rect x="34.7915" y="55.959" width="27.0833" height="8.12498" fill="white"/>
<rect x="26.6665" y="72.209" width="35.2082" height="8.12498" fill="white"/>
</svg>
