<svg width="48" height="48" viewBox="0 0 48 48" fill="none" xmlns="http://www.w3.org/2000/svg">
<rect width="48" height="48" fill="white"/>
<path d="M2.3335 9.00065L9.00016 2.33398H45.6668V39.0006L39.0002 45.6673H2.3335V9.00065Z" fill="black"/>
<path d="M30.9375 21.207H35V27.8468L30.9375 32.0403V27.8468V21.207Z" fill="white"/>
<path d="M17.3958 22.2236H13.3333V15.7914L17.3958 11.7289V15.7914V22.2236Z" fill="white"/>
<path d="M17.3958 21.208H13.3333V27.8478L17.3958 32.0413V27.8478V21.208Z" fill="white"/>
<path d="M30.9375 22.2236H35V15.7914L30.9375 11.7289V15.7914V22.2236Z" fill="white"/>
<rect x="17.3958" y="11.7295" width="13.5416" height="4.06249" fill="white"/>
<rect x="30.9375" y="7.66699" width="4.06249" height="4.06249" fill="white"/>
<rect x="30.9375" y="32.043" width="4.06249" height="4.06249" fill="white"/>
<rect x="17.3958" y="27.9795" width="13.5416" height="4.06249" fill="white"/>
<rect x="13.3333" y="36.1045" width="17.6041" height="4.06249" fill="white"/>
</svg>
