<?xml version="1.0" standalone="no"?>
<!DOCTYPE svg PUBLIC "-//W3C//DTD SVG 1.1//EN" "http://www.w3.org/Graphics/SVG/1.1/DTD/svg11.dtd" >
<svg xmlns="http://www.w3.org/2000/svg" xmlns:xlink="http://www.w3.org/1999/xlink" version="1.1">
<metadata>
Created by FontForge 20201107 at Thu Jun 11 00:46:51 2020
 By 
</metadata>
<defs>
<font id="Hannah-Regular" horiz-adv-x="894" >
  <font-face 
    font-family="Hannah"
    font-weight="400"
    font-stretch="normal"
    units-per-em="1000"
    panose-1="2 0 5 3 0 0 0 0 0 0"
    ascent="800"
    descent="-200"
    cap-height="690"
    bbox="33 -101 846 699"
    underline-thickness="50"
    underline-position="-150"
    unicode-range="U+000D-00A0"
  />
<missing-glyph horiz-adv-x="364" 
d="M33 0v666h265v-666h-265zM66 33h199v600h-199v-600z" />
    <glyph glyph-name=".notdef" horiz-adv-x="364" 
d="M33 0v666h265v-666h-265zM66 33h199v600h-199v-600z" />
    <glyph glyph-name=".null" horiz-adv-x="250" 
 />
    <glyph glyph-name=".null" horiz-adv-x="250" 
 />
    <glyph glyph-name="nonmarkingreturn" horiz-adv-x="333" 
 />
    <glyph glyph-name="CR" unicode="&#xd;" horiz-adv-x="250" 
 />
    <glyph glyph-name="space" unicode=" " horiz-adv-x="250" 
 />
    <glyph glyph-name="A" unicode="A" 
d="M682 528q-2 5 -237 5h-235v-157h235q236 0 237 4q2 6 2 74t-2 74zM50 531l161 161h471q54 -53 162 -161q0 -105 -1 -314t-1 -314h-160v230v52.5v48.5v43t-0.5 37t-0.5 28v18v7q0 1 -10 -8t-28.5 -27t-39.5 -39l-78 -77h-315v-314h-160v629z" />
    <glyph glyph-name="B" unicode="B" horiz-adv-x="882" 
d="M674 137v77l-233 1q-234 0 -235 -1q-2 -2 -2 -79v-76h471zM674 371v157q-78 0 -234.5 1t-235.5 1q0 -26 1 -79t1 -80h468zM50 -98v782h313l313 -1q26 -26 78 -76.5t78 -75.5v-160q-52 -51 -156 -155h156v-161l-156 -153h-626z" />
    <glyph glyph-name="C" unicode="C" horiz-adv-x="891" 
d="M50 531q26 27 78 79.5t78 78.5h317l318 1v-160h-634l1 -235v-235l317 -1h316v-160h-636q-26 26 -77.5 79t-77.5 80v473z" />
    <glyph glyph-name="D" unicode="D" 
d="M681 59v471h-471v-471h471zM50 -101v791h632l162 -162v-468q-54 -53 -162 -161h-632z" />
    <glyph glyph-name="E" unicode="E" horiz-adv-x="886" 
d="M50 530l153 156l314 1h315v-157h-625v-159q104 1 312.5 1t312.5 1v-29q0 -25 2 -77l2 -48l-270 -1q-266 0 -314 -2l-44 -2v-79l-1 -78l314 1l314 2v-155h-155q-130 0 -392 -2l-238 -2v313l156 156h-156v160z" />
    <glyph glyph-name="F" unicode="F" horiz-adv-x="891" 
d="M50 534l158 158h633q-1 -26 -1 -78.5t-1 -79.5l-314 -1h-315v-155h315l314 -1v-157l-314 -1h-315v-314h-160v315l158 158h-158v156z" />
    <glyph glyph-name="G" unicode="G" horiz-adv-x="885" 
d="M833 61q2 -13 2 -86l-1 -72q-130 -1 -391.5 -1t-392.5 -1v629q78 77 154 157l315 -1h315l1 -77v-77l-313 -2l-314 -1l-1 -234v-234h235l236 1v154l-158 1h-157v157h470v-158l-76 -75q-75 -75 -75 -78q0 -2 75 -2h76z" />
    <glyph glyph-name="H" unicode="H" horiz-adv-x="886" 
d="M740 688q68 0 75 1q14 0 17 -1q4 -2 4 -394v-393q-27 1 -79.5 1t-78.5 1v313l-156 1h-157q-102 102 -153 154l-2 -234l-1 -234h-159v783h80l80 1v-307h233q234 0 235 3v3v6t0.5 9.5t0.5 13v15.5q0 12 -0.5 48.5t-0.5 58.5l-2 150z" />
    <glyph glyph-name="I" unicode="I" horiz-adv-x="258" 
d="M50 -97v787h77q78 0 78 -2q0 -4 -76 -80l-76 -76l77 -2l78 -1v-626h-158z" />
    <glyph glyph-name="J" unicode="J" horiz-adv-x="886" 
d="M683 688q5 3 25 1q24 -2 74 -2h54v-628q-80 -78 -158 -158h-235l-235 1q-106 104 -158 157v315h159v-316l235 1h234v313q1 314 5 316z" />
    <glyph glyph-name="K" unicode="K" horiz-adv-x="888" 
d="M682 378v312h156v-156l-76 -78q-77 -79 -77 -81t77 -77l76 -75v-158q0 -158 -3 -159q-2 -1 -78 -3l-75 -1v317l-231 -1h-235q-4 0 -4 -157v-157h-162v783h162v-313h172q165 0 235 2z" />
    <glyph glyph-name="L" unicode="L" horiz-adv-x="891" 
d="M52 691q1 1 79 1l77 -1l1 -315v-315h632v-157h-630q-27 26 -80.5 77.5t-80.5 77.5v315q0 315 2 317z" />
    <glyph glyph-name="M" unicode="M" 
d="M50 -99v792h161q27 -27 79.5 -80.5t78.5 -79.5h158q51 54 155 160h162v-794h-80l-80 1l-1 316v316l-77 1h-78v-632q-27 1 -80.5 1t-80.5 1v315l-1 315h-154v-71q-1 -40 -1 -316v-243q-27 -1 -80.5 -1t-80.5 -1z" />
    <glyph glyph-name="N" unicode="N" 
d="M685 -99v792h159v-792h-159zM50 535q26 26 77 78.5t77 79.5h323l77 -78q78 -78 78 -79q0 -3 -237 -3l-237 -1v-632l-79 -1h-79v636z" />
    <glyph glyph-name="O" unicode="O" horiz-adv-x="891" 
d="M685 58v475h-478v-475h478zM50 538l155 155h481l155 -155v-481l-158 -158h-475l-158 158v481z" />
    <glyph glyph-name="P" unicode="P" 
d="M686 527l-2 6h-475v-156h238q237 0 239 4q2 6 2 72t-2 74zM50 531q27 27 79.5 81t78.5 81h636v-318q-104 -108 -157 -161h-478v-315h-78l-80 1v315z" />
    <glyph glyph-name="Q" unicode="Q" 
d="M685 58v475h-478v-236l1 -238h239zM50 538l155 155h481l155 -155v-481q-25 -26 -75 -76l39 -39q39 -39 39 -41t-318 -2h-318q-80 78 -158 158v481z" />
    <glyph glyph-name="R" unicode="R" 
d="M685 380v156h-476v-156h476zM50 535q53 53 157 161h637v-318l-77 -78q-74 -76 -74 -81q0 -1 29 -1q20 0 61.5 0.5t48.5 0.5h6l6 -2v-157l-1 -157h-157l-1 157v157h-476v-157l-1 -157l-77 -2q-11 0 -30 -0.5t-25 -0.5l-24 1q-2 2 -2 317v317z" />
    <glyph glyph-name="S" unicode="S" horiz-adv-x="888" 
d="M50 538l158 158h630v-79l-1 -79l-310 -1h-314q-4 0 -4 -79v-78h629v-317l-20 -23q-5 -5 -17.5 -18t-30.5 -31.5t-30 -31.5l-56 -58q-105 1 -316 1t-317 1v80l-1 81h636l-2 75q-2 76 -4 78q-2 3 -316 3h-314v318z" />
    <glyph glyph-name="T" unicode="T" horiz-adv-x="899" 
d="M53 617l-1 79h794v-79l-1 -79q-53 0 -158 -1t-157 -1v-635q-27 1 -81.5 1t-82.5 1v316l-1 317q-52 0 -156 1t-156 1v79z" />
    <glyph glyph-name="U" unicode="U" horiz-adv-x="888" 
d="M679 67v629h159v-790l-156 156v-158h-476q-26 27 -78 79t-78 79v631h157v-626h472z" />
    <glyph glyph-name="V" unicode="V" 
d="M50 375v321h159v-319h157v-313h159v313h79l79 1q1 53 1 159t1 159h159v-318q-81 -78 -159 -159v-157l-158 -158h-163q-104 106 -157 158v157q-53 52 -157 156z" />
    <glyph glyph-name="W" unicode="W" horiz-adv-x="891" 
d="M50 -96v792q26 0 78.5 -1t79.5 -1l1 -315v-315h157l1 237v237l78 1h77v-472h160v314l1 313h157l1 -395v-395h-158q-52 53 -156 157h-160l-159 -156l-79 -1h-79z" />
    <glyph glyph-name="X" unicode="X" horiz-adv-x="891" 
d="M52 694q2 2 80 2h77v-158l158 -158h160q70 68 153 155l2 79l1 80h157l1 -78v-77l-159 -165v-149q53 -54 159 -164v-157h-159v158l-158 158h-157q-78 -80 -158 -158v-158h-159v158q72 71 159 161v153q-27 27 -79.5 81.5t-79.5 81.5v76q0 77 2 79z" />
    <glyph glyph-name="Y" unicode="Y" horiz-adv-x="893" 
d="M50 378v318q27 0 80.5 -1t80.5 -1l1 -157v-157q26 0 77.5 -1t77.5 -1q1 -26 1 -77.5t1 -77.5h156v157h157v157l1 157h160q-1 -53 -1 -159t-1 -159q-78 -79 -158 -155h-79l-79 -1v-157l1 -157q-26 0 -80 -1t-80 -1v316h-154q-27 26 -81 78.5t-81 79.5z" />
    <glyph glyph-name="Z" unicode="Z" horiz-adv-x="893" 
d="M121 696q78 2 397 2l325 1v-318l-158 -158h-180q-174 0 -238 -2l-58 -2v-77l-1 -78q106 0 317.5 2t317.5 2v-161h-137q-112 0 -396 -2l-259 -2v316l159 162q79 1 236.5 1t236.5 1v154q-105 -1 -316 -1t-317 -1v159z" />
    <glyph glyph-name="nbsp" unicode="&#xa0;" horiz-adv-x="250" 
 />
  </font>
</defs>
</svg>
