<svg width="40" height="41" viewBox="0 0 40 41" fill="none" xmlns="http://www.w3.org/2000/svg">
<rect x="8" y="8.5" width="24" height="24" rx="12" fill="white"/>
<path d="M16.6667 18.8334V16.1667C16.6667 15.2827 17.0179 14.4348 17.643 13.8097C18.2681 13.1846 19.1159 12.8334 20 12.8334C20.8841 12.8334 21.7319 13.1846 22.357 13.8097C22.9821 14.4348 23.3333 15.2827 23.3333 16.1667V18.8334M15.3333 18.8334H24.6667C25.403 18.8334 26 19.4303 26 20.1667V24.8334C26 25.5698 25.403 26.1667 24.6667 26.1667H15.3333C14.597 26.1667 14 25.5698 14 24.8334V20.1667C14 19.4303 14.597 18.8334 15.3333 18.8334Z" stroke="#A7ADB3" stroke-width="1.5" stroke-linecap="round" stroke-linejoin="round"/>
</svg>
